<?xml version="1.0" encoding="utf-8"?>
<!-- Generator: Adobe Illustrator 28.0.0, SVG Export Plug-In . SVG Version: 6.00 Build 0)  -->
<svg version="1.1" id="Layer_1" xmlns="http://www.w3.org/2000/svg" xmlns:xlink="http://www.w3.org/1999/xlink" x="0px" y="0px"
	 viewBox="0 0 24 24" style="enable-background:new 0 0 24 24;" xml:space="preserve">
<style type="text/css">
	.st0{fill:#5D5D5D;}
</style>
<path class="st0" d="M3.5,20.5v-17h1.6v17C5.1,20.5,3.5,20.5,3.5,20.5z M18.9,20.5v-17h1.6v17C20.5,20.5,18.9,20.5,18.9,20.5z
	 M7.3,12.8v-1.6H9v1.6H7.3z M11.2,20.5v-1.6h1.6v1.6H11.2z M11.2,16.7V15h1.6v1.6H11.2z M11.2,12.8v-1.6h1.6v1.6H11.2z M11.2,9V7.3
	h1.6V9H11.2z M11.2,5.1V3.5h1.6v1.6H11.2z M15,12.8v-1.6h1.6v1.6C16.7,12.8,15,12.8,15,12.8z"/>
</svg>
