<?xml version="1.0" encoding="utf-8"?>
<!-- Generator: Adobe Illustrator 28.0.0, SVG Export Plug-In . SVG Version: 6.00 Build 0)  -->
<svg version="1.1" id="Layer_1" xmlns="http://www.w3.org/2000/svg" xmlns:xlink="http://www.w3.org/1999/xlink" x="0px" y="0px"
	 viewBox="0 0 24 24" style="enable-background:new 0 0 24 24;" xml:space="preserve">
<style type="text/css">
	.st0{fill:#5D5D5D;}
</style>
<path class="st0" d="M3.5,20.5v-17h17v17C20.5,20.5,3.5,20.5,3.5,20.5z M5,19h3.7v-3.7H5V19z M10.2,19h3.7v-3.7h-3.7V19z M15.3,19
	H19v-3.7h-3.7V19z M5,13.8h3.7v-3.7H5V13.8z M10.2,13.8h3.7v-3.7h-3.7V13.8z M15.3,13.8H19v-3.7h-3.7V13.8z M5,8.7h3.7V5H5V8.7z
	 M10.2,8.7h3.7V5h-3.7V8.7z M15.3,8.7H19V5h-3.7V8.7z"/>
</svg>
