<?xml version="1.0" encoding="utf-8"?>
<!-- Generator: Adobe Illustrator 28.0.0, SVG Export Plug-In . SVG Version: 6.00 Build 0)  -->
<svg version="1.1" id="Layer_1" xmlns="http://www.w3.org/2000/svg" xmlns:xlink="http://www.w3.org/1999/xlink" x="0px" y="0px"
	 viewBox="0 0 24 24" style="enable-background:new 0 0 24 24;" xml:space="preserve">
<style type="text/css">
	.st0{fill:#5D5D5D;}
</style>
<path class="st0" d="M2.5,19.5v-15h19v15C21.5,19.5,2.5,19.5,2.5,19.5z M4,18h7.3V6H4V18z M12.7,18H20V6h-7.3V18z M5.2,15.7h4.9
	v-1.5H5.2C5.2,14.3,5.2,15.7,5.2,15.7z M5.2,12.7h4.9v-1.5H5.2C5.2,11.3,5.2,12.7,5.2,12.7z M5.2,9.7h4.9V8.3H5.2V9.7z M13.9,15.7
	h4.9v-1.5h-4.9V15.7z M13.9,12.7h4.9v-1.5h-4.9V12.7z M13.9,9.7h4.9V8.3h-4.9V9.7z M11.3,18V6V18z"/>
</svg>
