<?xml version="1.0" encoding="utf-8"?>
<!-- Generator: Adobe Illustrator 28.0.0, SVG Export Plug-In . SVG Version: 6.00 Build 0)  -->
<svg version="1.1" id="Layer_1" xmlns="http://www.w3.org/2000/svg" xmlns:xlink="http://www.w3.org/1999/xlink" x="0px" y="0px"
	 viewBox="0 0 24 24" style="enable-background:new 0 0 24 24;" xml:space="preserve">
<style type="text/css">
	.st0{fill:#5D5D5D;}
</style>
<g>
	<path class="st0" d="M14.3,13.2c0.4-0.5,0.7-1,1-1.7c0.2-0.6,0.4-1.3,0.4-2c0-1.7-0.6-3.2-1.8-4.3C12.7,4,11.2,3.4,9.5,3.4
		C7.8,3.4,6.4,4,5.2,5.2C4,6.3,3.4,7.8,3.4,9.5c0,1.7,0.6,3.2,1.8,4.3c1.2,1.2,2.6,1.8,4.3,1.8c0.7,0,1.4-0.1,2-0.4
		c0.7-0.2,1.2-0.6,1.7-1l6.3,6.3l1.1-1.1L14.3,13.2z M12.8,12.8c-0.9,0.9-2,1.3-3.3,1.3s-2.4-0.4-3.3-1.3s-1.3-2-1.3-3.3
		s0.4-2.4,1.3-3.3s2-1.3,3.3-1.3s2.4,0.4,3.3,1.3s1.3,2,1.3,3.3S13.7,11.9,12.8,12.8z"/>
	<polygon class="st0" points="6.1,8.3 6.8,8.3 6.8,11.2 7.4,11.2 7.4,7.7 6.1,7.9 	"/>
	<path class="st0" d="M9,7.7c-0.3,0-0.6,0.1-0.8,0.3S7.9,8.6,7.9,9v1c0,0.4,0.1,0.7,0.3,0.9c0.2,0.2,0.5,0.3,0.8,0.3
		s0.6-0.1,0.8-0.3c0.2-0.2,0.3-0.5,0.3-0.9V9c0-0.4-0.1-0.7-0.3-0.9S9.4,7.7,9,7.7z M9.6,10.1c0,0.2,0,0.4-0.1,0.5
		c-0.1,0.1-0.2,0.2-0.4,0.2c-0.2,0-0.3-0.1-0.4-0.2c-0.1-0.1-0.1-0.3-0.1-0.5V8.9c0-0.2,0-0.4,0.1-0.5C8.7,8.3,8.9,8.2,9,8.2
		c0.2,0,0.3,0.1,0.4,0.2c0.1,0.1,0.1,0.3,0.1,0.5V10.1z"/>
	<path class="st0" d="M11.8,7.7c-0.3,0-0.6,0.1-0.8,0.3S10.6,8.6,10.6,9v1c0,0.4,0.1,0.7,0.3,0.9c0.2,0.2,0.5,0.3,0.8,0.3
		s0.6-0.1,0.8-0.3c0.2-0.2,0.3-0.5,0.3-0.9V9c0-0.4-0.1-0.7-0.3-0.9S12.1,7.7,11.8,7.7z M12.3,10.1c0,0.2,0,0.4-0.1,0.5
		c-0.1,0.1-0.2,0.2-0.4,0.2c-0.2,0-0.3-0.1-0.4-0.2c-0.1-0.1-0.1-0.3-0.1-0.5V8.9c0-0.2,0-0.4,0.1-0.5c0.1-0.1,0.2-0.2,0.4-0.2
		c0.2,0,0.3,0.1,0.4,0.2c0.1,0.1,0.1,0.3,0.1,0.5V10.1z"/>
</g>
</svg>
