<?xml version="1.0" encoding="utf-8"?>
<!-- Generator: Adobe Illustrator 28.0.0, SVG Export Plug-In . SVG Version: 6.00 Build 0)  -->
<svg version="1.1" id="Layer_1" xmlns="http://www.w3.org/2000/svg" xmlns:xlink="http://www.w3.org/1999/xlink" x="0px" y="0px"
	 viewBox="0 0 24 24" style="enable-background:new 0 0 24 24;" xml:space="preserve">
<style type="text/css">
	.st0{fill:#5D5D5D;}
</style>
<path class="st0" d="M14.3,13.3c0.4-0.5,0.7-1,1-1.7c0.2-0.6,0.4-1.3,0.4-2c0-1.7-0.6-3.2-1.8-4.3C12.7,4,11.2,3.4,9.5,3.4
	C7.8,3.4,6.4,4,5.2,5.2C4,6.4,3.4,7.8,3.4,9.5c0,1.7,0.6,3.2,1.8,4.3c1.2,1.2,2.6,1.8,4.3,1.8c0.7,0,1.4-0.1,2-0.4
	c0.7-0.2,1.2-0.6,1.7-1l6.3,6.3l1.1-1.1L14.3,13.3z M12.8,12.8c-0.9,0.9-2,1.3-3.3,1.3s-2.4-0.4-3.3-1.3s-1.3-2-1.3-3.3
	s0.4-2.4,1.3-3.3s2-1.3,3.3-1.3s2.4,0.4,3.3,1.3s1.3,2,1.3,3.3S13.7,11.9,12.8,12.8z"/>
</svg>
