<?xml version="1.0" encoding="utf-8"?>
<!-- Generator: Adobe Illustrator 28.0.0, SVG Export Plug-In . SVG Version: 6.00 Build 0)  -->
<svg version="1.1" id="Layer_1" xmlns="http://www.w3.org/2000/svg" xmlns:xlink="http://www.w3.org/1999/xlink" x="0px" y="0px"
	 viewBox="0 0 24 24" style="enable-background:new 0 0 24 24;" xml:space="preserve">
<style type="text/css">
	.st0{fill:#5D5D5D;}
</style>
<g>
	<path class="st0" d="M14.3,13.3c0.4-0.5,0.7-1,1-1.7c0.2-0.6,0.4-1.3,0.4-2c0-1.7-0.6-3.2-1.8-4.3C12.7,4,11.2,3.4,9.5,3.4
		C7.8,3.4,6.4,4,5.2,5.2C4,6.4,3.4,7.8,3.4,9.5c0,1.7,0.6,3.2,1.8,4.3c1.2,1.2,2.6,1.8,4.3,1.8c0.7,0,1.4-0.1,2-0.4
		c0.7-0.2,1.2-0.6,1.7-1l6.3,6.3l1.1-1.1L14.3,13.3z M12.8,12.8c-0.9,0.9-2,1.3-3.3,1.3s-2.4-0.4-3.3-1.3s-1.3-2-1.3-3.3
		s0.4-2.4,1.3-3.3s2-1.3,3.3-1.3s2.4,0.4,3.3,1.3s1.3,2,1.3,3.3S13.7,11.9,12.8,12.8z"/>
	<path class="st0" d="M6.6,10.9l0.7-0.8c0.2-0.3,0.4-0.5,0.5-0.7C8,9.2,8,9,8,8.8c0-0.3-0.1-0.5-0.3-0.7C7.6,8,7.3,7.9,7,7.9
		C6.6,7.9,6.4,8,6.2,8.2C6,8.4,5.9,8.6,5.9,8.9l0,0h0.6c0-0.2,0-0.3,0.1-0.4S6.8,8.4,7,8.4c0.2,0,0.3,0,0.3,0.1
		c0.1,0.1,0.1,0.2,0.1,0.4c0,0.1,0,0.2-0.1,0.4C7.3,9.4,7.2,9.5,7,9.7L5.9,11v0.4h2.2v-0.5L6.6,10.9L6.6,10.9z"/>
	<path class="st0" d="M9.6,7.9C9.3,7.9,9,8,8.8,8.2S8.5,8.8,8.5,9.2v1c0,0.4,0.1,0.7,0.3,0.9c0.2,0.2,0.5,0.3,0.8,0.3
		s0.6-0.1,0.8-0.3c0.2-0.2,0.3-0.5,0.3-0.9v-1c0-0.4-0.1-0.7-0.3-0.9S9.9,7.9,9.6,7.9z M10.2,10.2c0,0.2,0,0.4-0.1,0.5
		C9.9,10.9,9.8,11,9.6,11c-0.2,0-0.3-0.1-0.4-0.2c-0.1-0.1-0.1-0.3-0.1-0.5V9.1c0-0.2,0-0.4,0.1-0.5c0.1-0.1,0.2-0.2,0.4-0.2
		c0.2,0,0.3,0.1,0.4,0.2c0.1,0.1,0.1,0.3,0.1,0.5V10.2z"/>
	<path class="st0" d="M11.5,8.2c-0.2,0.2-0.3,0.5-0.3,0.9v1c0,0.4,0.1,0.7,0.3,0.9c0.2,0.2,0.5,0.3,0.8,0.3s0.6-0.1,0.8-0.3
		c0.2-0.2,0.3-0.5,0.3-0.9v-1c0-0.4-0.1-0.7-0.3-0.9s-0.5-0.3-0.8-0.3C12,7.9,11.7,8,11.5,8.2z M12.9,9.1v1.1c0,0.2,0,0.4-0.1,0.5
		c-0.1,0.1-0.2,0.2-0.4,0.2c-0.2,0-0.3-0.1-0.4-0.2c-0.1-0.1-0.1-0.3-0.1-0.5V9.1c0-0.2,0-0.4,0.1-0.5c0.1-0.1,0.2-0.2,0.4-0.2
		c0.2,0,0.3,0.1,0.4,0.2C12.8,8.7,12.9,8.9,12.9,9.1z"/>
</g>
</svg>
